<svg width="32" height="32" viewBox="0 0 32 32" fill="none" xmlns="http://www.w3.org/2000/svg">
<circle cx="16" cy="16" r="16" fill="white"/>
<path d="M6.55448 15.9411C6.80606 14.894 7.74263 14.1558 8.81959 14.1558L23.2114 14.1558C24.3132 14.1558 25.2644 14.9278 25.4911 16.0061L26.0216 18.5298C26.3259 19.9775 25.2212 21.3385 23.7419 21.3385H8.2133C6.7066 21.3385 5.59624 19.9298 5.9482 18.4648L6.55448 15.9411Z" fill="#E1E1E1"/>
<path d="M10.9862 10.0788H20.9981C21.5594 10.0788 22.0409 10.4792 22.1433 11.0311L22.6872 13.9614H9.21901L9.84679 11.0019C9.96094 10.4638 10.4361 10.0788 10.9862 10.0788Z" stroke="#E1E1E1" stroke-width="2.32955"/>
<rect x="8.16992" y="19.2031" width="2.91194" height="3.88258" rx="0.970646" fill="#E1E1E1"/>
<rect x="20.7871" y="19.2031" width="2.91194" height="3.88258" rx="0.970646" fill="#E1E1E1"/>
<circle cx="9.91673" cy="17.8445" r="1.16478" fill="white"/>
<circle cx="21.9519" cy="17.8445" r="1.16478" fill="white"/>
</svg>
