<svg width="18" height="18" viewBox="0 0 18 18" fill="none" xmlns="http://www.w3.org/2000/svg">
<path d="M9.35963 7.36952L11.723 9.73284C11.7556 9.76544 11.7813 9.80184 11.8 9.84204C11.8188 9.88226 11.8281 9.92534 11.8281 9.97129C11.8281 10.0632 11.797 10.143 11.7349 10.2108C11.6728 10.2786 11.5909 10.3125 11.4892 10.3125L6.51038 10.3125C6.40871 10.3125 6.3268 10.2783 6.26466 10.2098C6.20251 10.1414 6.17144 10.0615 6.17144 9.97029C6.17144 9.94747 6.20654 9.86827 6.27674 9.73269L8.63993 7.3695C8.69426 7.31517 8.75041 7.27551 8.8084 7.25051C8.8664 7.22551 8.93019 7.21301 8.99978 7.21301C9.06937 7.21301 9.13316 7.22551 9.19116 7.25051C9.24915 7.27551 9.30531 7.31518 9.35963 7.36952Z" fill="#C41013"/>
</svg>
