<svg width="18" height="18" viewBox="0 0 18 18" fill="none" xmlns="http://www.w3.org/2000/svg">
<path d="M9.35963 10.1559L11.723 7.79255C11.7556 7.75995 11.7813 7.72355 11.8 7.68335C11.8188 7.64313 11.8281 7.60005 11.8281 7.5541C11.8281 7.4622 11.797 7.38236 11.7349 7.31457C11.6728 7.24679 11.5909 7.21289 11.4892 7.21289L6.51038 7.21289C6.40871 7.21289 6.3268 7.24711 6.26466 7.31555C6.20251 7.384 6.17144 7.46385 6.17144 7.5551C6.17144 7.57792 6.20654 7.65712 6.27674 7.7927L8.63993 10.1559C8.69426 10.2102 8.75041 10.2499 8.8084 10.2749C8.8664 10.2999 8.93019 10.3124 8.99978 10.3124C9.06937 10.3124 9.13316 10.2999 9.19116 10.2749C9.24915 10.2499 9.30531 10.2102 9.35963 10.1559Z" fill="#2563EB"/>
</svg>
