<svg width="28" height="28" viewBox="0 0 28 28" fill="none" xmlns="http://www.w3.org/2000/svg">
<path d="M11.463 13.4405L15.1393 9.76415C15.19 9.71344 15.2467 9.6735 15.3092 9.64434C15.3717 9.61517 15.4388 9.60059 15.5102 9.60059C15.6532 9.60059 15.7774 9.64893 15.8828 9.7456C15.9883 9.84226 16.041 9.96967 16.041 10.1278L16.041 17.8726C16.041 18.0308 15.9878 18.1582 15.8813 18.2549C15.7748 18.3515 15.6506 18.3999 15.5087 18.3999C15.4732 18.3999 15.35 18.3453 15.1391 18.2361L11.463 14.56C11.3785 14.4755 11.3168 14.3881 11.2779 14.2979C11.239 14.2077 11.2196 14.1085 11.2196 14.0002C11.2196 13.892 11.239 13.7927 11.2779 13.7025C11.3168 13.6123 11.3785 13.525 11.463 13.4405Z" fill="#212121"/>
</svg>
