<svg width="16" height="16" viewBox="0 0 16 16" fill="none" xmlns="http://www.w3.org/2000/svg">
<path d="M3.53912 13.6666C3.20236 13.6666 2.91732 13.55 2.68398 13.3166C2.45065 13.0833 2.33398 12.7983 2.33398 12.4615V3.53847C2.33398 3.20171 2.45065 2.91667 2.68398 2.68333C2.91732 2.45 3.20236 2.33333 3.53912 2.33333H6.50578C6.55877 1.95898 6.72416 1.64317 7.00193 1.3859C7.2797 1.12863 7.6126 1 8.00063 1C8.38867 1 8.72157 1.12863 8.99933 1.3859C9.27711 1.64317 9.4425 1.95898 9.49548 2.33333H12.4622C12.7989 2.33333 13.084 2.45 13.3173 2.68333C13.5506 2.91667 13.6673 3.20171 13.6673 3.53847V12.4615C13.6673 12.7983 13.5506 13.0833 13.3173 13.3166C13.084 13.55 12.7989 13.6666 12.4622 13.6666H3.53912ZM8.00063 2.89742C8.14508 2.89742 8.26452 2.8502 8.35897 2.75575C8.45341 2.66131 8.50063 2.54186 8.50063 2.39742C8.50063 2.25297 8.45341 2.13353 8.35897 2.03908C8.26452 1.94464 8.14508 1.89742 8.00063 1.89742C7.85619 1.89742 7.73675 1.94464 7.6423 2.03908C7.54786 2.13353 7.50063 2.25297 7.50063 2.39742C7.50063 2.54186 7.54786 2.66131 7.6423 2.75575C7.73675 2.8502 7.85619 2.89742 8.00063 2.89742ZM3.33397 12.0282C3.93397 11.4393 4.63119 10.9754 5.42563 10.6365C6.22008 10.2976 7.07841 10.1282 8.00063 10.1282C8.92286 10.1282 9.78119 10.2976 10.5756 10.6365C11.3701 10.9754 12.0673 11.4393 12.6673 12.0282V3.53847C12.6673 3.48718 12.6459 3.44016 12.6032 3.39742C12.5605 3.35468 12.5134 3.33332 12.4622 3.33332H3.53912C3.48783 3.33332 3.44081 3.35468 3.39807 3.39742C3.35533 3.44016 3.33397 3.48718 3.33397 3.53847V12.0282ZM8.00063 8.6923C8.60235 8.6923 9.11388 8.48162 9.53523 8.06025C9.9566 7.63888 10.1673 7.12735 10.1673 6.52563C10.1673 5.92393 9.9566 5.4124 9.53523 4.99103C9.11388 4.56967 8.60235 4.35898 8.00063 4.35898C7.39892 4.35898 6.88739 4.56967 6.46603 4.99103C6.04467 5.4124 5.83398 5.92393 5.83398 6.52563C5.83398 7.12735 6.04467 7.63888 6.46603 8.06025C6.88739 8.48162 7.39892 8.6923 8.00063 8.6923ZM4.29548 12.6667H11.7058V12.5256C11.1793 12.0555 10.6017 11.7051 9.97308 11.4743C9.34445 11.2436 8.68697 11.1282 8.00063 11.1282C7.32286 11.1282 6.66858 11.2425 6.0378 11.4711C5.40702 11.6998 4.82625 12.047 4.29548 12.5128V12.6667ZM8.00063 7.69232C7.68012 7.69232 7.40555 7.578 7.1769 7.34937C6.94827 7.12074 6.83395 6.84616 6.83395 6.52563C6.83395 6.20512 6.94827 5.93055 7.1769 5.70192C7.40555 5.47328 7.68012 5.35897 8.00063 5.35897C8.32115 5.35897 8.59572 5.47328 8.82437 5.70192C9.053 5.93055 9.16732 6.20512 9.16732 6.52563C9.16732 6.84616 9.053 7.12074 8.82437 7.34937C8.59572 7.578 8.32115 7.69232 8.00063 7.69232Z" fill="#888888"/>
</svg>
