<svg width="24" height="24" viewBox="0 0 24 24" fill="none" xmlns="http://www.w3.org/2000/svg">
<path d="M9.56703 9.75H6.15C6.06716 9.75 6 9.81716 6 9.9V17.1C6 17.1828 6.06716 17.25 6.15 17.25H17.85C17.9328 17.25 18 17.1828 18 17.1V9.9C18 9.81716 17.9328 9.75 17.85 9.75H14.433C14.3383 9.75 14.2672 9.83591 14.282 9.92941C14.486 11.2239 14.29 13.5 12 13.5C9.71001 13.5 9.514 11.2239 9.71802 9.92941C9.73275 9.83591 9.66169 9.75 9.56703 9.75Z" fill="#C41013"/>
<path d="M6 9.75L8.25 6H15.75L18 9.75M6 9.75H9.75C9.5 11 9.6 13.5 12 13.5C14.4 13.5 14.5 11 14.25 9.75H18M6 9.75V17.25H18V9.75" stroke="#C41013" stroke-width="1.5"/>
</svg>
