<svg width="18" height="18" viewBox="0 0 18 18" fill="none" xmlns="http://www.w3.org/2000/svg">
<path d="M6.74998 12.0433C6.26826 12.0433 5.85936 11.8753 5.5233 11.5392C5.18725 11.2032 5.01922 10.7943 5.01922 10.3126C5.01922 9.83084 5.18725 9.42196 5.5233 9.08591C5.85936 8.74984 6.26826 8.58181 6.74998 8.58181C7.23171 8.58181 7.6406 8.74984 7.97666 9.08591C8.31271 9.42196 8.48074 9.83084 8.48074 10.3126C8.48074 10.7943 8.31271 11.2032 7.97666 11.5392C7.6406 11.8753 7.23171 12.0433 6.74998 12.0433ZM3.98077 16.1251C3.60193 16.1251 3.28125 15.9938 3.01875 15.7313C2.75625 15.4688 2.625 15.1481 2.625 14.7693V4.73088C2.625 4.35203 2.75625 4.03136 3.01875 3.76886C3.28125 3.50636 3.60193 3.37511 3.98077 3.37511H5.01924V2.36547C5.01924 2.20106 5.07429 2.06381 5.18439 1.95371C5.29448 1.84362 5.43174 1.78857 5.59616 1.78857C5.76058 1.78857 5.89783 1.84362 6.00793 1.95371C6.11802 2.06381 6.17306 2.20106 6.17306 2.36547V3.37511H11.8557V2.35106C11.8557 2.19144 11.9096 2.05779 12.0173 1.95011C12.125 1.84242 12.2586 1.78857 12.4182 1.78857C12.5778 1.78857 12.7115 1.84242 12.8192 1.95011C12.9269 2.05779 12.9807 2.19144 12.9807 2.35106V3.37511H14.0192C14.398 3.37511 14.7187 3.50636 14.9812 3.76886C15.2437 4.03136 15.375 4.35203 15.375 4.73088V14.7693C15.375 15.1481 15.2437 15.4688 14.9812 15.7313C14.7187 15.9938 14.398 16.1251 14.0192 16.1251H3.98077ZM3.98077 15.0001H14.0192C14.0769 15.0001 14.1298 14.976 14.1779 14.928C14.2259 14.8799 14.25 14.827 14.25 14.7693V7.73088H3.74998V14.7693C3.74998 14.827 3.77402 14.8799 3.82209 14.928C3.87018 14.976 3.92308 15.0001 3.98077 15.0001ZM3.74998 6.6059H14.25V4.73088C14.25 4.67318 14.2259 4.62029 14.1779 4.5722C14.1298 4.52412 14.0769 4.50009 14.0192 4.50009H3.98077C3.92308 4.50009 3.87018 4.52412 3.82209 4.5722C3.77402 4.62029 3.74998 4.67318 3.74998 4.73088V6.6059Z" fill="#4A4A4A"/>
</svg>
