<svg width="16" height="16" viewBox="0 0 16 16" fill="none" xmlns="http://www.w3.org/2000/svg">
<path d="M3.7442 12.3334V12.9616C3.7442 13.1575 3.67558 13.3239 3.53833 13.461C3.40108 13.5982 3.23442 13.6667 3.03835 13.6667C2.84227 13.6667 2.67586 13.5982 2.53912 13.461C2.40236 13.3239 2.33398 13.1575 2.33398 12.9616V8.25905C2.33398 8.18982 2.33847 8.12058 2.34745 8.05135C2.35643 7.98212 2.37153 7.91581 2.39275 7.85243L3.58655 4.477C3.66644 4.23693 3.81125 4.04188 4.02097 3.89183C4.23068 3.74178 4.46536 3.66675 4.725 3.66675H11.2763C11.5359 3.66675 11.7706 3.74178 11.9803 3.89183C12.19 4.04188 12.3348 4.23693 12.4147 4.477L13.6085 7.85243C13.6297 7.91581 13.6448 7.98212 13.6538 8.05135C13.6628 8.12058 13.6673 8.18982 13.6673 8.25905V12.9616C13.6673 13.1575 13.5987 13.3239 13.4614 13.461C13.3241 13.5982 13.1575 13.6667 12.9614 13.6667C12.7653 13.6667 12.5989 13.5982 12.4622 13.461C12.3254 13.3239 12.2571 13.1575 12.2571 12.9616V12.3334H3.7442ZM3.73908 7.05138H12.2622L11.4724 4.80137C11.4553 4.75862 11.4297 4.7255 11.3955 4.702C11.3613 4.67849 11.3207 4.66673 11.2737 4.66673H4.72757C4.68056 4.66673 4.63996 4.67849 4.60577 4.702C4.57158 4.7255 4.54593 4.75862 4.52883 4.80137L3.73908 7.05138ZM4.9765 10.5642C5.21908 10.5642 5.42477 10.4793 5.59357 10.3094C5.76238 10.1396 5.84678 9.93344 5.84678 9.69087C5.84678 9.44829 5.76188 9.2426 5.59207 9.0738C5.42226 8.90499 5.21606 8.82058 4.97348 8.82058C4.73091 8.82058 4.52521 8.90549 4.3564 9.0753C4.1876 9.24511 4.1032 9.4513 4.1032 9.69388C4.1032 9.93646 4.18811 10.1422 4.35792 10.311C4.52773 10.4798 4.73392 10.5642 4.9765 10.5642ZM11.0278 10.5642C11.2704 10.5642 11.4761 10.4793 11.6449 10.3094C11.8137 10.1396 11.8981 9.93344 11.8981 9.69087C11.8981 9.44829 11.8132 9.2426 11.6434 9.0738C11.4735 8.90499 11.2673 8.82058 11.0248 8.82058C10.7822 8.82058 10.5765 8.90549 10.4077 9.0753C10.2389 9.24511 10.1545 9.4513 10.1545 9.69388C10.1545 9.93646 10.2394 10.1422 10.4092 10.311C10.579 10.4798 10.7852 10.5642 11.0278 10.5642ZM3.33397 11.3334H12.6673V8.05135H3.33397V11.3334Z" fill="#4A4A4A"/>
</svg>
