<svg width="20" height="20" viewBox="0 0 20 20" fill="none" xmlns="http://www.w3.org/2000/svg">
<path d="M4.39238 15.5832L10.2674 13.4999L6.47571 9.70822L4.39238 15.5832ZM18.6183 6.06241C18.52 6.16603 18.4049 6.21785 18.273 6.21785C18.141 6.21785 18.0259 6.1687 17.9276 6.07041L17.8731 6.01593C17.6466 5.78943 17.3715 5.67618 17.0478 5.67618C16.7241 5.67618 16.449 5.78943 16.2225 6.01593L12.0013 10.2371C11.903 10.3354 11.7879 10.3858 11.656 10.3885C11.524 10.3912 11.4062 10.3407 11.3026 10.2371C11.199 10.1335 11.1472 10.017 11.1472 9.88772C11.1472 9.75846 11.199 9.64201 11.3026 9.53839L15.5237 5.31722C15.9415 4.89949 16.4468 4.69062 17.0398 4.69062C17.6327 4.69062 18.1381 4.89949 18.5558 5.31722L18.6183 5.37972C18.7166 5.47801 18.7657 5.59179 18.7657 5.72106C18.7657 5.85033 18.7166 5.96412 18.6183 6.06241ZM8.23213 3.66658C8.33575 3.56295 8.45219 3.51114 8.58146 3.51114C8.71074 3.51114 8.82719 3.56295 8.93081 3.66658L9.1071 3.84287C9.55155 4.28731 9.77377 4.82043 9.77377 5.44222C9.77377 6.06401 9.55155 6.59713 9.1071 7.04158L8.95646 7.19224C8.85817 7.29052 8.74306 7.341 8.61113 7.34368C8.47918 7.34635 8.36139 7.29587 8.25775 7.19224C8.15413 7.0886 8.10231 6.97215 8.10231 6.84289C8.10231 6.71361 8.15413 6.59716 8.25775 6.49354L8.4084 6.34289C8.65627 6.09501 8.78021 5.79479 8.78021 5.44222C8.78021 5.08965 8.65627 4.78944 8.4084 4.54158L8.23213 4.36529C8.13383 4.26699 8.08335 4.15187 8.08067 4.01993C8.078 3.888 8.12849 3.77022 8.23213 3.66658ZM11.4469 2.22429C11.5505 2.12066 11.6669 2.06885 11.7962 2.06885C11.9255 2.06885 12.0419 2.12066 12.1456 2.22429L13.0334 3.1121C13.4564 3.53518 13.668 4.04319 13.668 4.63614C13.668 5.22908 13.4564 5.7371 13.0334 6.16018L10.4789 8.71466C10.3806 8.81295 10.2655 8.86343 10.1335 8.8661C10.0016 8.86876 9.88381 8.81829 9.78019 8.71466C9.67655 8.61104 9.62473 8.49458 9.62473 8.36531C9.62473 8.23604 9.67655 8.11959 9.78019 8.01595L12.3347 5.46147C12.5612 5.23497 12.6744 4.95986 12.6744 4.63614C12.6744 4.31242 12.5612 4.03731 12.3347 3.81081L11.4469 2.92299C11.3486 2.8247 11.2981 2.70958 11.2954 2.57764C11.2927 2.44571 11.3432 2.32792 11.4469 2.22429ZM17.3763 11.7595C17.2726 11.8631 17.1562 11.915 17.0269 11.915C16.8977 11.915 16.7812 11.8631 16.6776 11.7595L16.0302 11.1121C15.777 10.8589 15.4671 10.7323 15.1007 10.7323C14.7342 10.7323 14.4244 10.8589 14.1711 11.1121L13.5237 11.7595C13.4255 11.8578 13.3103 11.9083 13.1784 11.911C13.0465 11.9136 12.9287 11.8631 12.825 11.7595C12.7214 11.6559 12.6696 11.5394 12.6696 11.4102C12.6696 11.2809 12.7214 11.1644 12.825 11.0608L13.4725 10.4134C13.9222 9.9636 14.465 9.7387 15.1007 9.7387C15.7363 9.7387 16.2791 9.9636 16.7289 10.4134L17.3763 11.0608C17.4746 11.1591 17.525 11.2742 17.5277 11.4062C17.5304 11.5381 17.4799 11.6559 17.3763 11.7595ZM2.85877 16.1377L5.5879 8.54962C5.65201 8.38509 5.74897 8.25956 5.87877 8.17301C6.00858 8.08647 6.1488 8.0432 6.29944 8.0432C6.39987 8.0432 6.49335 8.06003 6.57988 8.09368C6.66642 8.12733 6.74869 8.18316 6.82669 8.26116L11.7144 13.1489C11.7924 13.2269 11.8483 13.3092 11.8819 13.3957C11.9156 13.4823 11.9324 13.5757 11.9324 13.6762C11.9324 13.8268 11.8891 13.967 11.8026 14.0968C11.716 14.2266 11.5905 14.3236 11.426 14.3877L3.83794 17.1168C3.68729 17.1756 3.54225 17.1847 3.40283 17.1441C3.26342 17.1035 3.14349 17.033 3.04306 16.9325C2.94263 16.8321 2.87212 16.7122 2.83152 16.5728C2.79092 16.4333 2.80001 16.2883 2.85877 16.1377Z" fill="#4A4A4A"/>
</svg>
