<svg width="24" height="24" viewBox="0 0 24 24" fill="none" xmlns="http://www.w3.org/2000/svg">
<rect x="3.5" y="3.5" width="17" height="17" rx="1.5" fill="white" stroke="#B5B5B5"/>
<path d="M10.1616 14.6367L16.6404 8.15781C16.752 8.04628 16.8844 7.9893 17.0378 7.98689C17.1911 7.98449 17.326 8.04146 17.4423 8.15781C17.5587 8.27415 17.6168 8.4078 17.6168 8.55876C17.6168 8.70971 17.5587 8.84336 17.4423 8.95971L10.6361 15.7659C10.5005 15.9015 10.3423 15.9693 10.1616 15.9693C9.9808 15.9693 9.82263 15.9015 9.68705 15.7659L6.5558 12.6347C6.44426 12.5232 6.38921 12.3907 6.39065 12.2374C6.3921 12.084 6.451 11.9492 6.56733 11.8328C6.68368 11.7165 6.81733 11.6583 6.96828 11.6583C7.11925 11.6583 7.2529 11.7165 7.36923 11.8328L10.1616 14.6367Z" fill="white"/>
</svg>
