<svg width="16" height="16" viewBox="0 0 16 16" fill="none" xmlns="http://www.w3.org/2000/svg">
<path d="M7.5 8.14355L6.61152 9.02177C6.52027 9.11408 6.40622 9.16023 6.26937 9.16023C6.13251 9.16023 6.01452 9.11066 5.91538 9.01152C5.81879 8.91921 5.77157 8.80211 5.77372 8.66023C5.77585 8.51836 5.82307 8.40127 5.91538 8.30897L7.5782 6.64615C7.69871 6.52564 7.83931 6.46538 7.99998 6.46538C8.16066 6.46538 8.30126 6.52564 8.42177 6.64615L10.0846 8.30897C10.1769 8.40127 10.2258 8.51642 10.2314 8.65442C10.2369 8.79242 10.188 8.9116 10.0846 9.01197C9.99228 9.10397 9.87691 9.15061 9.73845 9.1519C9.59998 9.15318 9.48118 9.10766 9.38205 9.01535L8.49997 8.14355V11.7948C8.49997 11.8461 8.52134 11.8931 8.56408 11.9359C8.60682 11.9786 8.65383 12 8.70512 12H12.3333C12.8 12 13.1944 11.8389 13.5167 11.5167C13.8389 11.1944 14 10.8 14 10.3333C14 9.86665 13.8389 9.47221 13.5167 9.14998C13.1944 8.82776 12.8 8.66665 12.3333 8.66665H11.3333V7.33332C11.3333 6.4111 11.0083 5.62498 10.3583 4.97498C9.70832 4.32498 8.92221 3.99998 7.99998 3.99998C7.07776 3.99998 6.29165 4.32498 5.64165 4.97498C4.99165 5.62498 4.66665 6.4111 4.66665 7.33332H4.3205C3.68888 7.33332 3.14422 7.5611 2.68652 8.01665C2.22883 8.47221 1.99998 9.02221 1.99998 9.66665C1.99998 10.3111 2.22776 10.8611 2.68332 11.3167C3.13887 11.7722 3.68887 12 4.33332 12H5.5C5.64166 12 5.7604 12.0479 5.85623 12.1438C5.95207 12.2397 5.99998 12.3585 5.99998 12.5002C5.99998 12.6419 5.95207 12.7606 5.85623 12.8564C5.7604 12.9521 5.64166 13 5.5 13H4.33332C3.41196 13 2.62607 12.6804 1.97563 12.0412C1.32521 11.4019 1 10.6207 1 9.69742C1 8.86922 1.26646 8.1408 1.79937 7.51217C2.33228 6.88354 2.99317 6.51112 3.78205 6.39488C3.99573 5.39829 4.49679 4.58333 5.28525 3.95C6.07371 3.31667 6.97862 3 7.99998 3C9.20712 3 10.2311 3.42044 11.072 4.26132C11.9129 5.10218 12.3333 6.12618 12.3333 7.33332V7.66667H12.5384C13.241 7.72137 13.8269 8.00384 14.2961 8.5141C14.7654 9.02436 15 9.63076 15 10.3333C15 11.0769 14.7436 11.7072 14.2307 12.2243C13.7179 12.7414 13.0897 13 12.3461 13H8.70512C8.36836 13 8.08332 12.8833 7.85 12.65C7.61667 12.4166 7.5 12.1316 7.5 11.7948V8.14355Z" fill="#4A4A4A"/>
</svg>
