<svg width="16" height="16" viewBox="0 0 16 16" fill="none" xmlns="http://www.w3.org/2000/svg">
<path d="M8.83398 5.39417V2.93899C8.83398 2.76509 8.89191 2.62066 9.00777 2.5057C9.12363 2.39074 9.26721 2.33325 9.43848 2.33325H13.0655C13.2368 2.33325 13.3799 2.39074 13.4948 2.5057C13.6098 2.62066 13.6673 2.76509 13.6673 2.93899V5.39417C13.6673 5.56808 13.6094 5.71251 13.4935 5.82747C13.3776 5.94242 13.234 5.9999 13.0628 5.9999H9.43577C9.26449 5.9999 9.12137 5.94242 9.00642 5.82747C8.89146 5.71251 8.83398 5.56808 8.83398 5.39417ZM2.33398 7.7332V2.93314C2.33398 2.76314 2.39192 2.62066 2.50778 2.5057C2.62365 2.39074 2.76722 2.33325 2.9385 2.33325H6.5655C6.73678 2.33325 6.8799 2.39076 6.99485 2.50577C7.10981 2.62077 7.16728 2.76327 7.16728 2.93327V7.73334C7.16728 7.90334 7.10936 8.04581 6.9935 8.16077C6.87763 8.27574 6.73406 8.33322 6.56278 8.33322H2.93577C2.7645 8.33322 2.62139 8.27571 2.50643 8.1607C2.39147 8.0457 2.33398 7.9032 2.33398 7.7332ZM8.83398 13.0665V8.26647C8.83398 8.09647 8.89191 7.95399 9.00777 7.83904C9.12363 7.72407 9.26721 7.66659 9.43848 7.66659H13.0655C13.2368 7.66659 13.3799 7.72409 13.4948 7.8391C13.6098 7.9541 13.6673 8.0966 13.6673 8.2666V13.0667C13.6673 13.2367 13.6094 13.3791 13.4935 13.4941C13.3776 13.6091 13.234 13.6666 13.0628 13.6666H9.43577C9.26449 13.6666 9.12137 13.609 9.00642 13.494C8.89146 13.379 8.83398 13.2365 8.83398 13.0665ZM2.33398 13.0608V10.6056C2.33398 10.4317 2.39192 10.2873 2.50778 10.1723C2.62365 10.0574 2.76722 9.9999 2.9385 9.9999H6.5655C6.73678 9.9999 6.8799 10.0574 6.99485 10.1723C7.10981 10.2873 7.16728 10.4317 7.16728 10.6056V13.0608C7.16728 13.2347 7.10936 13.3791 6.9935 13.4941C6.87763 13.6091 6.73406 13.6666 6.56278 13.6666H2.93577C2.7645 13.6666 2.62139 13.6091 2.50643 13.4941C2.39147 13.3791 2.33398 13.2347 2.33398 13.0608ZM3.33397 7.33324H6.16732V3.33324H3.33397V7.33324ZM9.83395 12.6666H12.6673V8.66657H9.83395V12.6666ZM9.83395 4.99992H12.6673V3.33324H9.83395V4.99992ZM3.33397 12.6666H6.16732V10.9999H3.33397V12.6666Z" fill="#4A4A4A"/>
</svg>
