<svg width="48" height="48" viewBox="0 0 48 48" fill="none" xmlns="http://www.w3.org/2000/svg">
<circle cx="24" cy="24" r="24" fill="#4A4A4A"/>
<path d="M17 31H18.2615L28.4981 20.7634L27.2366 19.5019L17 29.7385V31ZM16.4038 32.5C16.1478 32.5 15.9331 32.4133 15.7599 32.2401C15.5866 32.0668 15.5 31.8522 15.5 31.5961V29.8635C15.5 29.6196 15.5468 29.3871 15.6404 29.1661C15.734 28.9451 15.8628 28.7526 16.0269 28.5885L28.6904 15.9308C28.8416 15.7934 29.0086 15.6873 29.1913 15.6124C29.374 15.5375 29.5656 15.5 29.7661 15.5C29.9666 15.5 30.1608 15.5356 30.3488 15.6068C30.5368 15.6779 30.7032 15.791 30.848 15.9462L32.0692 17.1827C32.2243 17.3275 32.3349 17.4942 32.4009 17.6828C32.4669 17.8713 32.5 18.0598 32.5 18.2483C32.5 18.4494 32.4656 18.6413 32.3969 18.824C32.3283 19.0068 32.219 19.1737 32.0692 19.325L19.4115 31.973C19.2474 32.1371 19.0548 32.266 18.8338 32.3596C18.6128 32.4532 18.3804 32.5 18.1365 32.5H16.4038ZM27.8563 20.1437L27.2366 19.5019L28.4981 20.7634L27.8563 20.1437Z" fill="#B5B5B5"/>
</svg>
