<svg width="16" height="16" viewBox="0 0 16 16" fill="none" xmlns="http://www.w3.org/2000/svg">
<path d="M6.44004 13.1864L6.28193 12.7121L6.28193 12.7121L6.44004 13.1864ZM9.77338 12.0753L9.61526 11.601H9.61526L9.77338 12.0753ZM13.1394 4.86128L13.4929 5.21483L13.1394 4.86128ZM5.80604 7.80409L5.45249 8.15764L5.80604 7.80409ZM3.33464 3.16602H12.668V2.16602H3.33464V3.16602ZM3.16797 4.38987V3.33268H2.16797V4.38987H3.16797ZM6.15959 7.45053L3.21678 4.50772L2.50968 5.21483L5.45249 8.15764L6.15959 7.45053ZM5.5013 8.27549V12.8702H6.5013V8.27549H5.5013ZM5.5013 12.8702C5.5013 13.439 6.05855 13.8406 6.59816 13.6608L6.28193 12.7121C6.38985 12.6761 6.5013 12.7564 6.5013 12.8702H5.5013ZM6.59816 13.6608L9.93149 12.5497L9.61526 11.601L6.28193 12.7121L6.59816 13.6608ZM9.93149 12.5497C10.2718 12.4362 10.5013 12.1178 10.5013 11.7591H9.5013C9.5013 11.6874 9.54721 11.6237 9.61526 11.601L9.93149 12.5497ZM10.5013 11.7591V8.27549H9.5013V11.7591H10.5013ZM12.7858 4.50772L9.84301 7.45053L10.5501 8.15764L13.4929 5.21483L12.7858 4.50772ZM12.8346 3.33268V4.38987H13.8346V3.33268H12.8346ZM13.4929 5.21483C13.7117 4.99604 13.8346 4.69929 13.8346 4.38987H12.8346C12.8346 4.43408 12.8171 4.47647 12.7858 4.50772L13.4929 5.21483ZM10.5013 8.27549C10.5013 8.23129 10.5189 8.1889 10.5501 8.15764L9.84301 7.45053C9.62422 7.66933 9.5013 7.96607 9.5013 8.27549H10.5013ZM5.45249 8.15764C5.48374 8.1889 5.5013 8.23129 5.5013 8.27549H6.5013C6.5013 7.96607 6.37839 7.66933 6.15959 7.45053L5.45249 8.15764ZM2.16797 4.38987C2.16797 4.69929 2.29088 4.99604 2.50968 5.21483L3.21678 4.50772C3.18553 4.47647 3.16797 4.43408 3.16797 4.38987H2.16797ZM12.668 3.16602C12.76 3.16602 12.8346 3.24064 12.8346 3.33268H13.8346C13.8346 2.68835 13.3123 2.16602 12.668 2.16602V3.16602ZM3.33464 2.16602C2.6903 2.16602 2.16797 2.68835 2.16797 3.33268H3.16797C3.16797 3.24063 3.24259 3.16602 3.33464 3.16602V2.16602Z" fill="#888888"/>
</svg>
