<svg width="16" height="16" viewBox="0 0 16 16" fill="none" xmlns="http://www.w3.org/2000/svg">
<path d="M0.910901 11.8589C0.747434 11.8589 0.610412 11.8036 0.499834 11.6931C0.389268 11.5825 0.333984 11.4455 0.333984 11.282V11.0461C0.333984 10.6025 0.565607 10.2382 1.02885 9.95318C1.4921 9.66813 2.09593 9.52561 2.84037 9.52561C2.96345 9.52561 3.08738 9.52946 3.21217 9.53716C3.33696 9.54485 3.4626 9.5598 3.58908 9.58203C3.45917 9.78972 3.36281 10.0053 3.29998 10.2288C3.23717 10.4523 3.20577 10.6816 3.20577 10.9166V11.8589H0.910901ZM4.93918 11.8589C4.76563 11.8589 4.62137 11.8012 4.50642 11.6857C4.39145 11.5702 4.33397 11.4271 4.33397 11.2564V10.9423C4.33397 10.6302 4.42158 10.3449 4.5968 10.0864C4.77201 9.82793 5.02457 9.60254 5.35448 9.41023C5.6844 9.21793 6.07413 9.0737 6.5237 8.97754C6.97327 8.88139 7.46472 8.83331 7.99805 8.83331C8.54164 8.83331 9.03822 8.88139 9.48778 8.97754C9.93735 9.0737 10.3271 9.21793 10.657 9.41023C10.9869 9.60254 11.2378 9.82793 11.4096 10.0864C11.5814 10.3449 11.6673 10.6302 11.6673 10.9423V11.2564C11.6673 11.4271 11.6095 11.5702 11.494 11.6857C11.3785 11.8012 11.2354 11.8589 11.0647 11.8589H4.93918ZM12.7955 11.8589V10.9175C12.7955 10.6665 12.7658 10.4303 12.7064 10.2089C12.647 9.98758 12.5579 9.7786 12.4391 9.58203C12.5698 9.5598 12.6948 9.54485 12.8141 9.53716C12.9333 9.52946 13.051 9.52561 13.1673 9.52561C13.9117 9.52561 14.5145 9.66642 14.9756 9.94804C15.4367 10.2297 15.6673 10.5957 15.6673 11.0461V11.282C15.6673 11.4455 15.612 11.5825 15.5014 11.6931C15.3908 11.8036 15.2538 11.8589 15.0904 11.8589H12.7955ZM5.38523 10.8589H10.6263V10.7884C10.5579 10.5192 10.2741 10.2927 9.77498 10.1089C9.27584 9.92518 8.68438 9.83329 8.00062 9.83329C7.31685 9.83329 6.7254 9.92518 6.22625 10.1089C5.72711 10.2927 5.44677 10.5192 5.38523 10.7884V10.8589ZM2.83867 8.87818C2.52442 8.87818 2.25598 8.76645 2.03333 8.54301C1.81069 8.31957 1.69937 8.05095 1.69937 7.73718C1.69937 7.41923 1.81109 7.15064 2.03453 6.93141C2.25798 6.71218 2.52659 6.60256 2.84037 6.60256C3.15831 6.60256 3.42797 6.71218 3.64933 6.93141C3.8707 7.15064 3.98138 7.41987 3.98138 7.73908C3.98138 8.04891 3.87187 8.31622 3.65285 8.54101C3.43383 8.76579 3.16243 8.87818 2.83867 8.87818ZM13.1673 8.87818C12.8562 8.87818 12.5882 8.76579 12.3634 8.54101C12.1387 8.31622 12.0263 8.04891 12.0263 7.73908C12.0263 7.41987 12.1387 7.15064 12.3634 6.93141C12.5882 6.71218 12.8566 6.60256 13.1685 6.60256C13.4899 6.60256 13.7602 6.71218 13.9794 6.93141C14.1987 7.15064 14.3083 7.41923 14.3083 7.73718C14.3083 8.05095 14.1989 8.31957 13.9803 8.54301C13.7616 8.76645 13.4906 8.87818 13.1673 8.87818ZM8.00288 8.33331C7.52275 8.33331 7.11388 8.16504 6.77627 7.82851C6.43867 7.49198 6.26987 7.08333 6.26987 6.60256C6.26987 6.11218 6.43813 5.70113 6.77467 5.36941C7.1112 5.03769 7.51985 4.87183 8.00062 4.87183C8.491 4.87183 8.90205 5.03747 9.23378 5.36876C9.56551 5.70005 9.73137 6.11057 9.73137 6.60031C9.73137 7.08044 9.56572 7.48931 9.23443 7.82691C8.90313 8.16451 8.49262 8.33331 8.00288 8.33331ZM8.00382 7.33334C8.20767 7.33334 8.3799 7.26198 8.5205 7.11924C8.66109 6.9765 8.73138 6.8032 8.73138 6.59936C8.73138 6.39551 8.66136 6.22329 8.5213 6.08269C8.38123 5.94209 8.20767 5.87179 8.00062 5.87179C7.79891 5.87179 7.62668 5.94183 7.48395 6.08189C7.34122 6.22196 7.26985 6.39552 7.26985 6.60256C7.26985 6.80427 7.34122 6.9765 7.48395 7.11924C7.62668 7.26198 7.79997 7.33334 8.00382 7.33334Z" fill="#4A4A4A"/>
</svg>
