<svg width="16" height="16" viewBox="0 0 16 16" fill="none" xmlns="http://www.w3.org/2000/svg">
<path d="M10.334 11.641L13.7622 8.21275C13.8545 8.12043 13.9705 8.07321 14.1103 8.07108C14.25 8.06894 14.3682 8.11617 14.4647 8.21275C14.5613 8.30932 14.6096 8.42641 14.6096 8.56401C14.6096 8.70161 14.5613 8.8187 14.4647 8.91528L10.7558 12.6243C10.6352 12.7448 10.4946 12.805 10.334 12.805C10.1733 12.805 10.0327 12.7448 9.91218 12.6243L8.0827 10.7948C7.99039 10.7025 7.94317 10.5864 7.94103 10.4467C7.93889 10.307 7.98611 10.1888 8.0827 10.0922C8.17928 9.99565 8.29637 9.94736 8.43397 9.94736C8.57157 9.94736 8.68866 9.99565 8.78523 10.0922L10.334 11.641ZM3.53912 13.6666C3.20771 13.6666 2.924 13.5486 2.688 13.3125C2.45199 13.0765 2.33398 12.7928 2.33398 12.4614V3.5384C2.33398 3.20698 2.45199 2.92328 2.688 2.68728C2.924 2.45127 3.20771 2.33326 3.53912 2.33326H6.4763C6.56861 2.00848 6.75728 1.73926 7.04232 1.5256C7.32735 1.31192 7.64679 1.20508 8.00063 1.20508C8.36815 1.20508 8.69271 1.31192 8.97433 1.5256C9.25596 1.73926 9.44292 2.00848 9.53522 2.33326H12.4622C12.7936 2.33326 13.0773 2.45127 13.3133 2.68728C13.5493 2.92328 13.6673 3.20698 13.6673 3.5384V6.16659C13.6673 6.30825 13.6193 6.427 13.5235 6.52283C13.4276 6.61866 13.3088 6.66658 13.1671 6.66658C13.0253 6.66658 12.9066 6.61866 12.8109 6.52283C12.7152 6.427 12.6673 6.30825 12.6673 6.16659V3.5384C12.6673 3.48711 12.6459 3.44009 12.6032 3.39735C12.5605 3.35461 12.5134 3.33325 12.4622 3.33325H11.0006V4.47426C11.0006 4.64498 10.9431 4.78809 10.8281 4.90358C10.7131 5.01907 10.5706 5.07681 10.4006 5.07681H5.60053C5.43053 5.07681 5.28806 5.01907 5.1731 4.90358C5.05813 4.78809 5.00065 4.64498 5.00065 4.47426V3.33325H3.53912C3.48783 3.33325 3.44081 3.35461 3.39807 3.39735C3.35533 3.44009 3.33397 3.48711 3.33397 3.5384V12.4614C3.33397 12.5127 3.35533 12.5597 3.39807 12.6025C3.44081 12.6452 3.48783 12.6666 3.53912 12.6666H6.83398C6.97564 12.6666 7.09438 12.7145 7.19022 12.8104C7.28605 12.9063 7.33397 13.0251 7.33397 13.1668C7.33397 13.3085 7.28605 13.4272 7.19022 13.523C7.09438 13.6187 6.97564 13.6666 6.83398 13.6666H3.53912ZM8.00175 3.41018C8.1728 3.41018 8.3158 3.35232 8.43075 3.23661C8.54572 3.12091 8.6032 2.97754 8.6032 2.8065C8.6032 2.63545 8.54535 2.49245 8.42963 2.3775C8.31392 2.26254 8.17055 2.20506 7.99952 2.20506C7.82847 2.20506 7.68547 2.26291 7.57052 2.37861C7.45555 2.49432 7.39807 2.6377 7.39807 2.80875C7.39807 2.97979 7.45592 3.12279 7.57163 3.23775C7.68735 3.3527 7.83072 3.41018 8.00175 3.41018Z" fill="#4A4A4A"/>
</svg>
