<svg width="18" height="18" viewBox="0 0 18 18" fill="none" xmlns="http://www.w3.org/2000/svg">
<path d="M9.10095 15.375C8.94134 15.375 8.80769 15.3211 8.7 15.2134C8.59231 15.1057 8.53847 14.9721 8.53847 14.8125C8.53847 14.6529 8.59231 14.5192 8.7 14.4115C8.80769 14.3038 8.94134 14.25 9.10095 14.25H14.0192C14.0817 14.25 14.1358 14.2308 14.1815 14.1923C14.2271 14.1538 14.25 14.1033 14.25 14.0408V8.79516C14.25 7.36151 13.737 6.15454 12.711 5.17425C11.6851 4.19398 10.4481 3.70384 8.99998 3.70384C7.55191 3.70384 6.31489 4.19398 5.28893 5.17425C4.26296 6.15454 3.74998 7.36151 3.74998 8.79516V12.649C3.74998 12.8086 3.69614 12.9423 3.58845 13.05C3.48076 13.1577 3.34711 13.2115 3.1875 13.2115C2.82789 13.2115 2.51924 13.0863 2.26155 12.8358C2.00385 12.5853 1.875 12.2803 1.875 11.9207V10.4639C1.875 10.2207 1.94423 9.99781 2.08269 9.79541C2.22116 9.59301 2.40193 9.43028 2.625 9.3072L2.65963 8.34951C2.72116 7.53317 2.93317 6.77693 3.29567 6.08078C3.65817 5.38461 4.12307 4.7786 4.69037 4.26274C5.25768 3.74688 5.91249 3.34496 6.65479 3.05698C7.3971 2.76899 8.17883 2.625 8.99998 2.625C9.82113 2.625 10.6009 2.76899 11.3394 3.05698C12.0779 3.34496 12.7327 3.74496 13.3038 4.25698C13.875 4.76899 14.3399 5.37308 14.6985 6.06923C15.0572 6.76538 15.2711 7.52163 15.3403 8.33798L15.375 9.27692C15.5932 9.3798 15.7728 9.52691 15.9137 9.71826C16.0545 9.9096 16.125 10.1231 16.125 10.3586V12.0332C16.125 12.2687 16.0545 12.4822 15.9137 12.6735C15.7728 12.8649 15.5932 13.012 15.375 13.1149V14.0408C15.375 14.4101 15.2425 14.7247 14.9776 14.9848C14.7127 15.2449 14.3932 15.375 14.0192 15.375H9.10095ZM6.89423 10.3269C6.71058 10.3269 6.55409 10.2646 6.42476 10.1401C6.29544 10.0156 6.23078 9.86152 6.23078 9.67787C6.23078 9.49421 6.29544 9.33892 6.42476 9.21201C6.55409 9.08508 6.71058 9.02162 6.89423 9.02162C7.07788 9.02162 7.23436 9.08508 7.36369 9.21201C7.49301 9.33892 7.55768 9.49421 7.55768 9.67787C7.55768 9.86152 7.49301 10.0156 7.36369 10.1401C7.23436 10.2646 7.07788 10.3269 6.89423 10.3269ZM11.1057 10.3269C10.9221 10.3269 10.7656 10.2646 10.6363 10.1401C10.507 10.0156 10.4423 9.86152 10.4423 9.67787C10.4423 9.49421 10.507 9.33892 10.6363 9.21201C10.7656 9.08508 10.9221 9.02162 11.1057 9.02162C11.2894 9.02162 11.4459 9.08508 11.5752 9.21201C11.7045 9.33892 11.7692 9.49421 11.7692 9.67787C11.7692 9.86152 11.7045 10.0156 11.5752 10.1401C11.4459 10.2646 11.2894 10.3269 11.1057 10.3269ZM4.77836 9.14996C4.70048 7.92594 5.08124 6.87859 5.92067 6.00791C6.76009 5.13725 7.79903 4.70192 9.03748 4.70192C10.0779 4.70192 10.9959 5.02379 11.7916 5.66755C12.5872 6.31128 13.0702 7.14469 13.2404 8.16776C12.175 8.15526 11.1906 7.87546 10.2872 7.32834C9.38388 6.78123 8.69038 6.03124 8.20673 5.07836C8.01634 6.01105 7.6173 6.83556 7.00961 7.5519C6.40191 8.26824 5.65816 8.80093 4.77836 9.14996Z" fill="#888888"/>
</svg>
