<svg width="24" height="24" viewBox="0 0 24 24" fill="none" xmlns="http://www.w3.org/2000/svg">
<path d="M12.5 19.5384C12.0875 19.5384 11.7344 19.3915 11.4406 19.0978C11.1469 18.804 11 18.4509 11 18.0384C11 17.6259 11.1469 17.2728 11.4406 16.9791C11.7344 16.6853 12.0875 16.5384 12.5 16.5384C12.9125 16.5384 13.2656 16.6853 13.5593 16.9791C13.8531 17.2728 14 17.6259 14 18.0384C14 18.4509 13.8531 18.804 13.5593 19.0978C13.2656 19.3915 12.9125 19.5384 12.5 19.5384ZM12.5 13.7692C12.0875 13.7692 11.7344 13.6223 11.4406 13.3285C11.1469 13.0348 11 12.6817 11 12.2692C11 11.8567 11.1469 11.5036 11.4406 11.2098C11.7344 10.9161 12.0875 10.7692 12.5 10.7692C12.9125 10.7692 13.2656 10.9161 13.5593 11.2098C13.8531 11.5036 14 11.8567 14 12.2692C14 12.6817 13.8531 13.0348 13.5593 13.3285C13.2656 13.6223 12.9125 13.7692 12.5 13.7692ZM12.5 7.99993C12.0875 7.99993 11.7344 7.85305 11.4406 7.5593C11.1469 7.26557 11 6.91245 11 6.49995C11 6.08747 11.1469 5.73435 11.4406 5.4406C11.7344 5.14687 12.0875 5 12.5 5C12.9125 5 13.2656 5.14687 13.5593 5.4406C13.8531 5.73435 14 6.08747 14 6.49995C14 6.91245 13.8531 7.26557 13.5593 7.5593C13.2656 7.85305 12.9125 7.99993 12.5 7.99993Z" fill="#B5B5B5"/>
</svg>
