<svg width="20" height="20" viewBox="0 0 20 20" fill="none" xmlns="http://www.w3.org/2000/svg">
<path d="M11.4589 10.5929C10.8766 10.5929 10.3838 10.3913 9.98052 9.98798C9.57722 9.58468 9.37556 9.09189 9.37556 8.50963C9.37556 7.92738 9.57722 7.4346 9.98052 7.0313C10.3838 6.62799 10.8766 6.42634 11.4589 6.42634C12.0411 6.42634 12.5339 6.62799 12.9372 7.0313C13.3405 7.4346 13.5422 7.92738 13.5422 8.50963C13.5422 9.09189 13.3405 9.58468 12.9372 9.98798C12.5339 10.3913 12.0411 10.5929 11.4589 10.5929ZM5.96208 13.1731C5.54783 13.1731 5.1932 13.0256 4.89819 12.7306C4.60319 12.4356 4.45569 12.0809 4.45569 11.6667V5.35259C4.45569 4.93834 4.60319 4.58371 4.89819 4.28869C5.1932 3.99369 5.54783 3.84619 5.96208 3.84619H16.9556C17.3699 3.84619 17.7245 3.99369 18.0195 4.28869C18.3145 4.58371 18.462 4.93834 18.462 5.35259V11.6667C18.462 12.0809 18.3145 12.4356 18.0195 12.7306C17.7245 13.0256 17.3699 13.1731 16.9556 13.1731H5.96208ZM7.21206 11.9231H15.7057C15.7057 11.5075 15.8532 11.1525 16.1482 10.8582C16.4432 10.5639 16.7978 10.4167 17.2121 10.4167V6.60257C16.7965 6.60257 16.4415 6.45507 16.1472 6.16007C15.8528 5.86505 15.7057 5.51042 15.7057 5.09617H7.21206C7.21206 5.51177 7.06456 5.86673 6.76956 6.16107C6.47455 6.4554 6.11992 6.60257 5.70567 6.60257V10.4167C6.12126 10.4167 6.47623 10.5642 6.77056 10.8592C7.0649 11.1542 7.21206 11.5088 7.21206 11.9231ZM15.3531 16.0897H3.04546C2.63119 16.0897 2.27656 15.9422 1.98156 15.6472C1.68656 15.3522 1.53906 14.9976 1.53906 14.5833V6.95515C1.53906 6.77807 1.59898 6.62964 1.71881 6.50986C1.83866 6.39007 1.98716 6.33017 2.16431 6.33017C2.34148 6.33017 2.48989 6.39007 2.60954 6.50986C2.72919 6.62964 2.78902 6.77807 2.78902 6.95515V14.5833C2.78902 14.6474 2.81574 14.7062 2.86917 14.7596C2.92258 14.813 2.98135 14.8397 3.04546 14.8397H15.3531C15.5301 14.8397 15.6786 14.8997 15.7984 15.0195C15.9182 15.1393 15.9781 15.2878 15.9781 15.465C15.9781 15.6422 15.9182 15.7906 15.7984 15.9102C15.6786 16.0299 15.5301 16.0897 15.3531 16.0897ZM5.96208 11.9231H5.70567V5.09617H5.96208C5.89264 5.09617 5.83254 5.12155 5.78179 5.1723C5.73104 5.22305 5.70567 5.28314 5.70567 5.35259V11.6667C5.70567 11.7361 5.73104 11.7962 5.78179 11.847C5.83254 11.8977 5.89264 11.9231 5.96208 11.9231Z" fill="#4A4A4A"/>
</svg>
