<svg width="18" height="18" viewBox="0 0 18 18" fill="none" xmlns="http://www.w3.org/2000/svg">
<path d="M9.00124 16.125C8.01579 16.125 7.08951 15.938 6.22241 15.564C5.3553 15.19 4.60104 14.6824 3.95963 14.0413C3.3182 13.4001 2.81041 12.6462 2.43624 11.7795C2.06208 10.9128 1.875 9.98669 1.875 9.00124C1.875 8.01579 2.062 7.08951 2.436 6.22241C2.81 5.3553 3.31756 4.60104 3.95869 3.95963C4.59983 3.3182 5.35376 2.81041 6.22048 2.43624C7.08719 2.06208 8.01328 1.875 8.99873 1.875C9.98418 1.875 10.9105 2.062 11.7776 2.436C12.6447 2.81 13.3989 3.31756 14.0403 3.95869C14.6818 4.59983 15.1896 5.35376 15.5637 6.22048C15.9379 7.08719 16.125 8.01328 16.125 8.99873C16.125 9.98418 15.938 10.9105 15.564 11.7776C15.19 12.6447 14.6824 13.3989 14.0413 14.0403C13.4001 14.6818 12.6462 15.1896 11.7795 15.5637C10.9128 15.9379 9.98669 16.125 9.00124 16.125ZM8.99998 15C10.675 15 12.0937 14.4187 13.2562 13.2562C14.4187 12.0937 15 10.675 15 8.99998C15 7.32498 14.4187 5.90623 13.2562 4.74373C12.0937 3.58123 10.675 2.99998 8.99998 2.99998C7.32498 2.99998 5.90623 3.58123 4.74373 4.74373C3.58123 5.90623 2.99998 7.32498 2.99998 8.99998C2.99998 10.675 3.58123 12.0937 4.74373 13.2562C5.90623 14.4187 7.32498 15 8.99998 15ZM8.98123 14.1057C9.11777 14.1057 9.23724 14.0545 9.33964 13.9521C9.44204 13.8497 9.49324 13.7303 9.49324 13.5937V13.1971C10.075 13.1182 10.6016 12.8997 11.0733 12.5416C11.5449 12.1834 11.7807 11.6404 11.7807 10.9125C11.7807 10.3875 11.6259 9.92306 11.3163 9.51923C11.0067 9.11538 10.4019 8.75095 9.5019 8.42595C8.71343 8.15671 8.18986 7.92354 7.93121 7.72643C7.67256 7.52931 7.54324 7.25383 7.54324 6.89998C7.54324 6.54613 7.67569 6.25863 7.94061 6.03748C8.20551 5.81632 8.57113 5.70574 9.03748 5.70574C9.31633 5.70574 9.56033 5.7579 9.76946 5.86223C9.9786 5.96656 10.1553 6.10575 10.2995 6.27979C10.3909 6.39133 10.4966 6.46921 10.6168 6.51343C10.737 6.55766 10.8508 6.55573 10.9583 6.50766C11.1049 6.44997 11.205 6.35141 11.2588 6.21199C11.3125 6.07258 11.299 5.94469 11.2182 5.82834C11.0182 5.54566 10.7702 5.31033 10.474 5.12235C10.1779 4.93436 9.86343 4.82787 9.53074 4.80287V4.40623C9.53074 4.26969 9.47954 4.15023 9.37714 4.04783C9.27474 3.94543 9.15527 3.89423 9.01873 3.89423C8.88219 3.89423 8.76273 3.94543 8.66033 4.04783C8.55793 4.15023 8.50673 4.26969 8.50673 4.40623V4.80287C7.8673 4.92594 7.37619 5.18532 7.03341 5.58099C6.69062 5.97667 6.51923 6.41633 6.51923 6.89998C6.51923 7.46345 6.6899 7.91681 7.03125 8.26007C7.37259 8.60335 7.92884 8.91344 8.7 9.19037C9.49711 9.48267 10.0416 9.74493 10.3334 9.97714C10.6252 10.2094 10.7711 10.5211 10.7711 10.9125C10.7711 11.3827 10.6014 11.7243 10.262 11.9372C9.92258 12.1502 9.53941 12.2567 9.11248 12.2567C8.75623 12.2567 8.43423 12.1678 8.14648 11.9899C7.85874 11.812 7.61776 11.5548 7.42352 11.2183C7.34757 11.0865 7.24517 10.9978 7.11632 10.9522C6.98748 10.9065 6.86134 10.9079 6.73791 10.9565C6.60498 11.0051 6.50766 11.0974 6.44593 11.2334C6.38422 11.3695 6.38365 11.4995 6.44423 11.6235C6.65384 12.0437 6.92739 12.3798 7.26489 12.6317C7.60239 12.8836 8.00384 13.0596 8.46923 13.1596V13.5937C8.46923 13.7303 8.52043 13.8497 8.62283 13.9521C8.72523 14.0545 8.84469 14.1057 8.98123 14.1057Z" fill="#888888"/>
</svg>
