<svg width="20" height="20" viewBox="0 0 20 20" fill="none" xmlns="http://www.w3.org/2000/svg">
<path d="M10.0408 16.4581C8.23843 16.4581 6.70452 15.831 5.43903 14.5767C4.17354 13.3225 3.5408 11.7968 3.5408 9.99982V9.34913L2.4382 10.4517C2.32282 10.5671 2.1778 10.6261 2.00311 10.6288C1.82845 10.6315 1.68075 10.5725 1.56003 10.4517C1.43928 10.331 1.37891 10.1846 1.37891 10.0126C1.37891 9.84063 1.43927 9.69427 1.56001 9.57355L3.63853 7.49503C3.78917 7.34439 3.96491 7.26907 4.16576 7.26907C4.36661 7.26907 4.54235 7.34439 4.69299 7.49503L6.77151 9.57355C6.8869 9.68892 6.94593 9.83395 6.94859 10.0086C6.95127 10.1833 6.89225 10.331 6.77151 10.4517C6.65079 10.5725 6.50443 10.6328 6.33243 10.6328C6.16043 10.6328 6.01407 10.5725 5.89334 10.4517L4.79074 9.34913V9.99982C4.79074 11.4475 5.30036 12.6774 6.31959 13.6897C7.33884 14.702 8.57924 15.2082 10.0408 15.2082C10.2844 15.2082 10.5272 15.1916 10.7692 15.1585C11.0111 15.1254 11.2497 15.0687 11.4847 14.9886C11.662 14.9352 11.8295 14.9408 11.9871 15.0054C12.1447 15.0701 12.263 15.1799 12.3421 15.3348C12.4211 15.4982 12.4262 15.6609 12.3573 15.8227C12.2884 15.9846 12.1652 16.0922 11.9879 16.1456C11.6738 16.2567 11.3527 16.3366 11.0248 16.3852C10.6968 16.4338 10.3688 16.4581 10.0408 16.4581ZM9.95745 4.79146C9.71385 4.79146 9.47106 4.80802 9.22907 4.84115C8.98709 4.87427 8.74857 4.9309 8.51353 5.01103C8.33618 5.06444 8.16658 5.05883 8.00472 4.99419C7.84287 4.92955 7.72242 4.81978 7.64336 4.66488C7.56429 4.50996 7.55789 4.35158 7.62414 4.18973C7.69037 4.02787 7.80788 3.92023 7.97668 3.86682C8.29933 3.75571 8.62599 3.67371 8.95666 3.62082C9.28731 3.56794 9.62091 3.5415 9.95745 3.5415C11.7598 3.5415 13.2937 4.16864 14.5592 5.4229C15.8247 6.67718 16.4574 8.20282 16.4574 9.99982V10.6505L17.56 9.5479C17.6754 9.43253 17.8204 9.3735 17.9951 9.37082C18.1698 9.36815 18.3175 9.42718 18.4382 9.5479C18.5589 9.66862 18.6193 9.81499 18.6193 9.987C18.6193 10.159 18.5589 10.3054 18.4382 10.4261L16.3597 12.5046C16.209 12.6552 16.0333 12.7306 15.8324 12.7306C15.6316 12.7306 15.4559 12.6552 15.3052 12.5046L13.2267 10.4261C13.1113 10.3107 13.0523 10.1657 13.0496 9.991C13.0469 9.81632 13.106 9.66862 13.2267 9.5479C13.3474 9.42718 13.4938 9.36682 13.6658 9.36682C13.8378 9.36682 13.9841 9.42718 14.1049 9.5479L15.2075 10.6505V9.99982C15.2075 8.55216 14.6979 7.32219 13.6786 6.3099C12.6594 5.29761 11.419 4.79146 9.95745 4.79146Z" fill="#4A4A4A"/>
</svg>
