<svg width="16" height="16" viewBox="0 0 16 16" fill="none" xmlns="http://www.w3.org/2000/svg">
<path d="M6.34643 10.4101C5.20798 10.4101 4.24388 10.0153 3.45415 9.22555C2.6644 8.4358 2.26953 7.4717 2.26953 6.33325C2.26953 5.19479 2.6644 4.23069 3.45415 3.44095C4.24388 2.65121 5.20798 2.25635 6.34643 2.25635C7.48489 2.25635 8.44899 2.65121 9.23873 3.44095C10.0285 4.23069 10.4233 5.19479 10.4233 6.33325C10.4233 6.80932 10.3434 7.26402 10.1836 7.69735C10.0238 8.13068 9.81052 8.5076 9.54385 8.82812L13.3798 12.664C13.4721 12.7563 13.5193 12.8724 13.5214 13.0121C13.5236 13.1518 13.4763 13.27 13.3798 13.3666C13.2832 13.4631 13.1661 13.5114 13.0285 13.5114C12.8909 13.5114 12.7738 13.4631 12.6772 13.3666L8.8413 9.53067C8.50797 9.80588 8.12463 10.0213 7.6913 10.1768C7.25796 10.3324 6.80968 10.4101 6.34643 10.4101ZM6.34643 9.41018C7.20541 9.41018 7.93298 9.1121 8.52913 8.51595C9.12529 7.91979 9.42337 7.19223 9.42337 6.33325C9.42337 5.47427 9.12529 4.7467 8.52913 4.15055C7.93298 3.55439 7.20541 3.25631 6.34643 3.25631C5.48745 3.25631 4.75989 3.55439 4.16373 4.15055C3.56759 4.7467 3.26951 5.47427 3.26951 6.33325C3.26951 7.19223 3.56759 7.91979 4.16373 8.51595C4.75989 9.1121 5.48745 9.41018 6.34643 9.41018Z" fill="#4A4A4A"/>
</svg>
