<svg width="16" height="16" viewBox="0 0 16 16" fill="none" xmlns="http://www.w3.org/2000/svg">
<path d="M7.5 9.30002V11.7565C7.5 11.8983 7.54786 12.0171 7.64358 12.1129C7.73931 12.2086 7.85811 12.2564 7.99998 12.2564C8.14186 12.2564 8.26066 12.2086 8.35638 12.1129C8.45211 12.0171 8.49997 11.8983 8.49997 11.7565V9.30002L9.38205 10.1821C9.43162 10.2317 9.48738 10.2688 9.54935 10.2936C9.61132 10.3184 9.67328 10.3291 9.73523 10.3257C9.7972 10.3223 9.85853 10.3082 9.91922 10.2834C9.97989 10.2586 10.035 10.2214 10.0846 10.1718C10.1812 10.0684 10.2312 9.95133 10.2346 9.82057C10.238 9.6898 10.188 9.57271 10.0846 9.4693L8.42177 7.80648C8.35938 7.74408 8.29357 7.70007 8.22433 7.67443C8.15511 7.64879 8.08033 7.63597 7.99998 7.63597C7.91964 7.63597 7.84486 7.64879 7.77563 7.67443C7.7064 7.70007 7.64059 7.74408 7.5782 7.80648L5.91538 9.4693C5.81624 9.56843 5.76731 9.68445 5.76858 9.81737C5.76986 9.95027 5.82221 10.0684 5.92563 10.1718C6.02904 10.2684 6.14613 10.3184 6.2769 10.3218C6.40767 10.3253 6.52476 10.2753 6.62818 10.1718L7.5 9.30002ZM4.20513 14.3334C3.86838 14.3334 3.58333 14.2167 3.35 13.9834C3.11667 13.7501 3 13.465 3 13.1283V2.87188C3 2.53513 3.11667 2.25008 3.35 2.01675C3.58333 1.78341 3.86838 1.66675 4.20513 1.66675H9.00128C9.16196 1.66675 9.31644 1.69795 9.46473 1.76035C9.61302 1.82274 9.74187 1.90863 9.85128 2.01803L12.6487 4.81543C12.7581 4.92484 12.844 5.05369 12.9064 5.20198C12.9688 5.35027 13 5.50475 13 5.66543V13.1283C13 13.465 12.8833 13.7501 12.65 13.9834C12.4166 14.2167 12.1316 14.3334 11.7948 14.3334H4.20513ZM9 5.06415V2.66673H4.20513C4.15384 2.66673 4.10683 2.6881 4.06408 2.73083C4.02135 2.77358 3.99998 2.82059 3.99998 2.87188V13.1283C3.99998 13.1795 4.02135 13.2266 4.06408 13.2693C4.10683 13.312 4.15384 13.3334 4.20513 13.3334H11.7948C11.8461 13.3334 11.8931 13.312 11.9359 13.2693C11.9786 13.2266 12 13.1795 12 13.1283V5.66672H9.60257C9.43078 5.66672 9.28741 5.60923 9.17245 5.49427C9.05748 5.37931 9 5.23594 9 5.06415Z" fill="#888888"/>
</svg>
