<svg width="16" height="16" viewBox="0 0 16 16" fill="none" xmlns="http://www.w3.org/2000/svg">
<g clip-path="url(#clip0_1741_12567)">
<path d="M2.56879 13.7273C2.74976 13.9091 2.97687 14 3.2501 14H12.8937C13.1625 14 13.3878 13.9091 13.5696 13.7273C13.7514 13.5455 13.8423 13.3202 13.8423 13.0514V12.5569C13.8423 12.0655 13.7071 11.6164 13.4366 11.2094C13.1662 10.8025 12.7712 10.4477 12.2519 10.1449C11.7325 9.8422 11.1189 9.61513 10.4111 9.46375C9.70333 9.31237 8.92156 9.23668 8.06577 9.23668C7.22613 9.23668 6.45242 9.31237 5.74466 9.46375C5.03689 9.61513 4.42331 9.8422 3.90392 10.1449C3.38453 10.4477 2.98692 10.8025 2.71108 11.2094C2.43522 11.6164 2.29729 12.0655 2.29729 12.5569V13.0514C2.29729 13.3202 2.38779 13.5455 2.56879 13.7273Z" fill="#4A4A4A"/>
<path d="M6.14228 7.6548C6.67379 8.18461 7.31749 8.44952 8.07338 8.44952C8.84438 8.44952 9.49067 8.18377 10.0122 7.65228C10.5338 7.12078 10.7946 6.47709 10.7946 5.7212C10.7946 4.95018 10.5335 4.30389 10.0112 3.78234C9.48896 3.26078 8.84183 3 8.06981 3C7.31292 3 6.66957 3.26112 6.13976 3.78336C5.60995 4.3056 5.34504 4.95273 5.34504 5.72475C5.34504 6.48163 5.61079 7.12498 6.14228 7.6548Z" fill="#4A4A4A"/>
</g>
<defs>
<clipPath id="clip0_1741_12567">
<rect width="16" height="16" fill="white"/>
</clipPath>
</defs>
</svg>
